<svg xmlns="http://www.w3.org/2000/svg" xmlns:xlink="http://www.w3.org/1999/xlink" width="356" height="229" viewBox="0 0 356 229">
  <defs>
    <clipPath id="clip-path">
      <rect id="Rectangle_157" data-name="Rectangle 157" width="356" height="229" transform="translate(0)" fill="none"/>
    </clipPath>
  </defs>
  <g id="Mask_Group_22" data-name="Mask Group 22" clip-path="url(#clip-path)">
    <g id="Group_294" data-name="Group 294" transform="translate(-378.208 -6.057)">
      <line id="Line_816" data-name="Line 816" x1="280.734" y2="253.14" transform="translate(0 0)" fill="none" stroke="#939bd6" stroke-width="7"/>
      <line id="Line_817" data-name="Line 817" x1="280.734" y2="253.14" transform="translate(23.691 0)" fill="none" stroke="#939bd6" stroke-width="7"/>
      <line id="Line_818" data-name="Line 818" x1="280.734" y2="253.14" transform="translate(47.381 0)" fill="none" stroke="#939bd6" stroke-width="7"/>
      <line id="Line_819" data-name="Line 819" x1="280.734" y2="253.14" transform="translate(71.072 0)" fill="none" stroke="#939bd6" stroke-width="7"/>
      <line id="Line_820" data-name="Line 820" x1="280.734" y2="253.14" transform="translate(94.762 0)" fill="none" stroke="#939bd6" stroke-width="7"/>
      <line id="Line_821" data-name="Line 821" x1="280.734" y2="253.14" transform="translate(118.453 0)" fill="none" stroke="#939bd6" stroke-width="7"/>
      <line id="Line_822" data-name="Line 822" x1="280.734" y2="253.14" transform="translate(142.144 0)" fill="none" stroke="#939bd6" stroke-width="7"/>
      <line id="Line_823" data-name="Line 823" x1="280.734" y2="253.14" transform="translate(165.834 0)" fill="none" stroke="#939bd6" stroke-width="7"/>
      <line id="Line_824" data-name="Line 824" x1="280.734" y2="253.14" transform="translate(189.525 0)" fill="none" stroke="#939bd6" stroke-width="7"/>
      <line id="Line_825" data-name="Line 825" x1="280.734" y2="253.14" transform="translate(213.215 0)" fill="none" stroke="#939bd6" stroke-width="7"/>
      <line id="Line_826" data-name="Line 826" x1="280.734" y2="253.14" transform="translate(236.906 0)" fill="none" stroke="#939bd6" stroke-width="7"/>
      <line id="Line_827" data-name="Line 827" x1="280.734" y2="253.14" transform="translate(260.597 0)" fill="none" stroke="#939bd6" stroke-width="7"/>
      <line id="Line_828" data-name="Line 828" x1="280.734" y2="253.14" transform="translate(284.287 0)" fill="none" stroke="#939bd6" stroke-width="7"/>
      <line id="Line_829" data-name="Line 829" x1="280.734" y2="253.14" transform="translate(307.978 0)" fill="none" stroke="#939bd6" stroke-width="7"/>
      <line id="Line_830" data-name="Line 830" x1="280.734" y2="253.14" transform="translate(331.668 0)" fill="none" stroke="#939bd6" stroke-width="7"/>
      <line id="Line_831" data-name="Line 831" x1="280.734" y2="253.14" transform="translate(355.359 0)" fill="none" stroke="#939bd6" stroke-width="7"/>
      <line id="Line_832" data-name="Line 832" x1="280.734" y2="253.14" transform="translate(379.05 0)" fill="none" stroke="#939bd6" stroke-width="7"/>
      <line id="Line_833" data-name="Line 833" x1="280.734" y2="253.14" transform="translate(402.74 0)" fill="none" stroke="#939bd6" stroke-width="7"/>
      <line id="Line_834" data-name="Line 834" x1="280.734" y2="253.14" transform="translate(426.431 0)" fill="none" stroke="#939bd6" stroke-width="7"/>
      <line id="Line_835" data-name="Line 835" x1="280.734" y2="253.14" transform="translate(450.121 0)" fill="none" stroke="#939bd6" stroke-width="7"/>
      <line id="Line_836" data-name="Line 836" x1="280.734" y2="253.14" transform="translate(473.812 0)" fill="none" stroke="#939bd6" stroke-width="7"/>
      <line id="Line_837" data-name="Line 837" x1="280.734" y2="253.14" transform="translate(497.502 0)" fill="none" stroke="#939bd6" stroke-width="7"/>
      <line id="Line_838" data-name="Line 838" x1="280.734" y2="253.14" transform="translate(521.193 0)" fill="none" stroke="#939bd6" stroke-width="7"/>
      <line id="Line_839" data-name="Line 839" x1="280.734" y2="253.14" transform="translate(544.884 0)" fill="none" stroke="#939bd6" stroke-width="7"/>
    </g>
    <g id="Group_295" data-name="Group 295" transform="translate(190.943 -6.057)">
      <line id="Line_840" data-name="Line 840" x1="280.734" y2="253.14" transform="translate(0 0)" fill="none" stroke="#939bd6" stroke-width="7"/>
      <line id="Line_841" data-name="Line 841" x1="280.734" y2="253.14" transform="translate(23.691 0)" fill="none" stroke="#939bd6" stroke-width="7"/>
      <line id="Line_842" data-name="Line 842" x1="280.734" y2="253.14" transform="translate(47.381 0)" fill="none" stroke="#939bd6" stroke-width="7"/>
      <line id="Line_843" data-name="Line 843" x1="280.734" y2="253.14" transform="translate(71.072 0)" fill="none" stroke="#939bd6" stroke-width="7"/>
      <line id="Line_844" data-name="Line 844" x1="280.734" y2="253.14" transform="translate(94.762 0)" fill="none" stroke="#939bd6" stroke-width="7"/>
      <line id="Line_845" data-name="Line 845" x1="280.734" y2="253.14" transform="translate(118.453 0)" fill="none" stroke="#939bd6" stroke-width="7"/>
      <line id="Line_846" data-name="Line 846" x1="280.734" y2="253.14" transform="translate(142.144 0)" fill="none" stroke="#939bd6" stroke-width="7"/>
      <line id="Line_847" data-name="Line 847" x1="280.734" y2="253.14" transform="translate(165.834 0)" fill="none" stroke="#939bd6" stroke-width="7"/>
      <line id="Line_848" data-name="Line 848" x1="280.734" y2="253.14" transform="translate(189.525 0)" fill="none" stroke="#939bd6" stroke-width="7"/>
      <line id="Line_849" data-name="Line 849" x1="280.734" y2="253.14" transform="translate(213.215 0)" fill="none" stroke="#939bd6" stroke-width="7"/>
      <line id="Line_850" data-name="Line 850" x1="280.734" y2="253.14" transform="translate(236.906 0)" fill="none" stroke="#939bd6" stroke-width="7"/>
      <line id="Line_851" data-name="Line 851" x1="280.734" y2="253.14" transform="translate(260.597 0)" fill="none" stroke="#939bd6" stroke-width="7"/>
      <line id="Line_852" data-name="Line 852" x1="280.734" y2="253.14" transform="translate(284.287 0)" fill="none" stroke="#939bd6" stroke-width="7"/>
      <line id="Line_853" data-name="Line 853" x1="280.734" y2="253.14" transform="translate(307.978 0)" fill="none" stroke="#939bd6" stroke-width="7"/>
      <line id="Line_854" data-name="Line 854" x1="280.734" y2="253.14" transform="translate(331.668 0)" fill="none" stroke="#939bd6" stroke-width="7"/>
      <line id="Line_855" data-name="Line 855" x1="280.734" y2="253.14" transform="translate(355.359 0)" fill="none" stroke="#939bd6" stroke-width="7"/>
      <line id="Line_856" data-name="Line 856" x1="280.734" y2="253.14" transform="translate(379.05 0)" fill="none" stroke="#939bd6" stroke-width="7"/>
      <line id="Line_857" data-name="Line 857" x1="280.734" y2="253.14" transform="translate(402.74 0)" fill="none" stroke="#939bd6" stroke-width="7"/>
      <line id="Line_858" data-name="Line 858" x1="280.734" y2="253.14" transform="translate(426.431 0)" fill="none" stroke="#939bd6" stroke-width="7"/>
      <line id="Line_859" data-name="Line 859" x1="280.734" y2="253.14" transform="translate(450.121 0)" fill="none" stroke="#939bd6" stroke-width="7"/>
      <line id="Line_860" data-name="Line 860" x1="280.734" y2="253.14" transform="translate(473.812 0)" fill="none" stroke="#939bd6" stroke-width="7"/>
      <line id="Line_861" data-name="Line 861" x1="280.734" y2="253.14" transform="translate(497.502 0)" fill="none" stroke="#939bd6" stroke-width="7"/>
      <line id="Line_862" data-name="Line 862" x1="280.734" y2="253.14" transform="translate(521.193 0)" fill="none" stroke="#939bd6" stroke-width="7"/>
      <line id="Line_863" data-name="Line 863" x1="280.734" y2="253.14" transform="translate(544.884 0)" fill="none" stroke="#939bd6" stroke-width="7"/>
    </g>
  </g>
</svg>
