<svg xmlns="http://www.w3.org/2000/svg" xmlns:xlink="http://www.w3.org/1999/xlink" width="725" height="661" viewBox="0 0 724.695 660.965"><defs><clipPath id="A"><path fill="#1d121b" d="M938 448h724.695v660.965H938z"/></clipPath><path id="B" d="M488.653-475.355l-3307.858 3930.377"/></defs><g transform="translate(-938 -448)" clip-path="url(#A)" fill="none" stroke="#1d121b" stroke-width="10"><use xlink:href="#B"/><path d="M527.25-475.355L-2780.61 3455.022"/><use xlink:href="#B" x="77.192"/><use xlink:href="#B" x="115.787"/><path d="M643.037-475.355L-2664.82 3455.022"/><use xlink:href="#B" x="192.98"/><path d="M720.23-475.355L-2587.63 3455.022"/><use xlink:href="#B" x="270.172"/><use xlink:href="#B" x="308.769"/><path d="M836.018-475.355L-2471.84 3455.022"/><use xlink:href="#B" x="385.961"/><use xlink:href="#B" x="424.547"/><use xlink:href="#B" x="463.153"/><use xlink:href="#B" x="501.749"/><path d="M1028.998-475.355L-2278.86 3455.022"/><use xlink:href="#B" x="578.941"/><use xlink:href="#B" x="617.547"/><use xlink:href="#B" x="656.133"/><use xlink:href="#B" x="694.729"/><path d="M1221.978-475.355L-2085.88 3455.022"/><use xlink:href="#B" x="771.921"/><use xlink:href="#B" x="810.517"/><use xlink:href="#B" x="849.113"/><use xlink:href="#B" x="887.71"/><path d="M1414.96-475.355L-1892.9 3455.022"/><use xlink:href="#B" x="964.902"/><use xlink:href="#B" x="1003.497"/><path d="M1530.747-475.355L-1777.11 3455.022"/><use xlink:href="#B" x="1080.69"/><path d="M1607.94-475.355L-1699.92 3455.022"/><use xlink:href="#B" x="1157.882"/><use xlink:href="#B" x="1196.477"/><path d="M1723.727-475.355L-1584.13 3455.022"/><use xlink:href="#B" x="1273.67"/><path d="M1800.92-475.355L-1506.94 3455.022"/><use xlink:href="#B" x="1350.862"/><use xlink:href="#B" x="1389.457"/><path d="M1916.707-475.355L-1391.15 3455.022"/><use xlink:href="#B" x="1466.651"/><path d="M1993.9-475.355L-1313.96 3455.022"/><use xlink:href="#B" x="1543.843"/><use xlink:href="#B" x="1582.439"/><path d="M2109.688-475.355L-1198.17 3455.022"/><use xlink:href="#B" x="1659.631"/><use xlink:href="#B" x="1698.227"/><use xlink:href="#B" x="1736.823"/><use xlink:href="#B" x="1775.419"/><path d="M2302.668-475.355L-1005.2 3455.022M2341.264-475.355L-966.594 3455.022M2379.86-475.355L-927.998 3455.022M2418.456-475.355L-889.402 3455.022M2457.052-475.355L-850.806 3455.022M2495.648-475.355L-812.2 3455.022M2534.244-475.355L-773.614 3455.022M2572.84-475.355L-735.017 3455.022M2611.437-475.355L-696.42 3455.022M2650.033-475.355L-657.825 3455.022M2688.63-475.355L-619.23 3455.022M2727.225-475.355L-580.633 3455.022M2765.82-475.355L-542.037 3455.022M2804.417-475.355L-503.44 3455.022M2843.013-475.355L-464.845 3455.022M2881.6-475.355L-426.25 3455.022M2920.205-475.355L-387.653 3455.022M2958.8-475.355L-349.057 3455.022M2997.397-475.355L-310.46 3455.022M3035.993-475.355L-271.865 3455.022M3074.6-475.355L-233.268 3455.022M3113.185-475.355L-194.673 3455.022M3151.78-475.355L-156.077 3455.022M3190.377-475.355L-117.48 3455.022M3228.974-475.355L-78.884 3455.022M3267.57-475.355L-40.288 3455.022M3306.166-475.355L-1.692 3455.022M3344.762-475.355L36.904 3455.022M3383.358-475.355L75.5 3455.022M3421.954-475.355L114.096 3455.022M3460.55-475.355L152.692 3455.022M3499.146-475.355L191.288 3455.022M3537.742-475.355L229.884 3455.022M3576.338-475.355L268.48 3455.022M3614.934-475.355L307.076 3455.022M3653.53-475.355L345.672 3455.022M3692.126-475.355L384.268 3455.022M3730.723-475.355L422.865 3455.022M3769.32-475.355L461.46 3455.022M3807.915-475.355L500.057 3455.022M3846.5-475.355L538.653 3455.022M3885.107-475.355L577.25 3455.022M3923.703-475.355L615.845 3455.022M3962.3-475.355L654.44 3455.022M4000.895-475.355L693.037 3455.022M4039.5-475.355L731.633 3455.022M4078.087-475.355L770.23 3455.022M4116.683-475.355L808.825 3455.022M4155.28-475.355L847.42 3455.022M4193.875-475.355L886.017 3455.022M4232.47-475.355L924.613 3455.022M4271.067-475.355L963.2 3455.022M4309.664-475.355L1001.806 3455.022M4348.26-475.355L1040.402 3455.022M4386.856-475.355L1078.998 3455.022M4425.452-475.355L1117.594 3455.022M4464.047-475.355L1156.2 3455.022M4502.644-475.355L1194.786 3455.022M4541.24-475.355L1233.382 3455.022M4579.836-475.355L1271.978 3455.022M4618.432-475.355L1310.574 3455.022M4657.028-475.355L1349.17 3455.022M4695.624-475.355L1387.766 3455.022M4734.22-475.355L1426.362 3455.022M4772.816-475.355L1464.958 3455.022M4811.412-475.355L1503.554 3455.022M4850.008-475.355L1542.15 3455.022M4888.604-475.355L1580.746 3455.022M4927.2-475.355L1619.342 3455.022M4965.797-475.355L1657.94 3455.022M5004.393-475.355L1696.535 3455.022M5043-475.355L1735.13 3455.022M5081.585-475.355L1773.727 3455.022M5120.18-475.355L1812.323 3455.022M5158.777-475.355L1850.92 3455.022M5197.373-475.355L1889.515 3455.022M5235.97-475.355L1928.1 3455.022M5274.565-475.355L1966.707 3455.022M5313.162-475.355L2005.304 3455.022M5351.758-475.355L2043.9 3455.022M5390.353-475.355L2082.495 3455.022M5428.95-475.355L2121.1 3455.022M5467.546-475.355L2159.688 3455.022M5506.142-475.355L2198.284 3455.022M5544.737-475.355L2236.88 3455.022M5583.334-475.355L2275.476 3455.022M5621.93-475.355L2314.072 3455.022M5660.526-475.355L2352.668 3455.022M5699.122-475.355L2391.264 3455.022M5737.718-475.355L2429.86 3455.022M5776.314-475.355L2468.456 3455.022M5814.9-475.355L2507.05 3455.022M5853.506-475.355L2545.648 3455.022M5892.102-475.355L2584.244 3455.022M5930.7-475.355L2622.84 3455.022M5969.295-475.355L2661.437 3455.022M6007.9-475.355L2700.032 3455.022M6046.487-475.355L2738.63 3455.022M6085.083-475.355L2777.225 3455.022M6123.678-475.355L2815.82 3455.022M6162.275-475.355L2854.417 3455.022M6200.87-475.355L2893.013 3455.022M6239.466-475.355L2931.608 3455.022M6278.063-475.355L2970.205 3455.022M6316.66-475.355L3008.8 3455.022M6355.256-475.355L3047.398 3455.022M6393.85-475.355L3085.993 3455.022M6432.447-475.355L3124.6 3455.022M6471.043-475.355L3163.185 3455.022M6509.64-475.355L3201.78 3455.022M6548.236-475.355L3240.378 3455.022M6586.83-475.355L3278.973 3455.022M6625.427-475.355L3317.57 3455.022M6664.024-475.355L3356.166 3455.022M6702.62-475.355L3394.762 3455.022M6741.215-475.355L3433.357 3455.022M6779.812-475.355L3471.954 3455.022M6818.408-475.355L3510.55 3455.022M6857.004-475.355L3549.146 3455.022M6895.6-475.355L3587.742 3455.022M6934.195-475.355L3626.337 3455.022M6972.792-475.355L3664.934 3455.022M7011.387-475.355L3703.53 3455.022M7049.985-475.355L3742.127 3455.022M7088.58-475.355L3780.723 3455.022M7127.177-475.355L3819.32 3455.022M7165.773-475.355L3857.915 3455.022M7204.368-475.355L3896.5 3455.022M7242.965-475.355L3935.107 3455.022M7281.56-475.355L3973.702 3455.022M7320.156-475.355L4012.298 3455.022M7358.753-475.355L4050.895 3455.022M7397.35-475.355L4089.5 3455.022M7435.945-475.355L4128.087 3455.022M7474.54-475.355L4166.683 3455.022M7513.137-475.355L4205.28 3455.022M7551.733-475.355L4243.875 3455.022M7590.33-475.355L4282.47 3455.022M7628.924-475.355L4321.066 3455.022M7667.52-475.355L4359.663 3455.022M7706.117-475.355L4398.26 3455.022M7744.714-475.355L4436.856 3455.022M7783.3-475.355L4475.452 3455.022M7821.906-475.355L4514.048 3455.022M7860.502-475.355L4552.644 3455.022M7899.097-475.355L4591.24 3455.022M7937.695-475.355L4629.837 3455.022M7976.3-475.355L4668.432 3455.022M8014.885-475.355L4707.027 3455.022M8053.482-475.355L4745.624 3455.022M8092.078-475.355L4784.22 3455.022M8130.674-475.355L4822.816 3455.022M8169.27-475.355L4861.413 3455.022M8207.866-475.355L4900.008 3455.022M8246.463-475.355L4938.605 3455.022M8285.058-475.355L4977.2 3455.022M8323.654-475.355L5015.796 3455.022M8362.25-475.355L5054.393 3455.022M8400.846-475.355L5092.988 3455.022M8439.442-475.355L5131.584 3455.022M8478.04-475.355L5170.18 3455.022M8516.634-475.355L5208.776 3455.022"/></g></svg>